<svg width="65" height="41" viewBox="0 0 65 41" fill="none" xmlns="http://www.w3.org/2000/svg">
<path fill-rule="evenodd" clip-rule="evenodd" d="M50.7023 3.60924C51.5457 2.78357 51.5457 1.44491 50.7023 0.619247C49.8588 -0.206416 48.4913 -0.206416 47.6479 0.619247L43.1691 5.00346C40.1552 2.98706 36.5104 1.80781 32.5843 1.80781C28.4165 1.80781 24.5658 3.13667 21.4502 5.38516L16.8946 0.925676C16.0512 0.100013 14.6837 0.100013 13.8402 0.925676C12.9967 1.75134 12.9967 3.09 13.8402 3.91567L18.2876 8.26927C15.8285 11.0918 14.2264 14.6515 13.8752 18.5625H2.15981C0.96698 18.5625 0 19.5091 0 20.6768C0 21.8444 0.96698 22.791 2.15981 22.791H13.9882C14.52 26.4721 16.1654 29.8027 18.5801 32.4457C18.5726 32.4526 18.5652 32.4595 18.5578 32.4666C18.5504 32.4736 18.543 32.4807 18.5357 32.4879L13.5272 37.3908C12.6837 38.2164 12.6837 39.5551 13.5272 40.3808C14.3706 41.2064 15.7381 41.2064 16.5816 40.3808L21.5901 35.4779C21.6654 35.4042 21.7339 35.3265 21.7957 35.2455C24.8485 37.3461 28.5693 38.5793 32.5843 38.5793C36.5104 38.5793 40.1552 37.4001 43.1691 35.3837L47.9609 40.0743C48.8043 40.9 50.1719 40.9 51.0153 40.0743C51.8588 39.2487 51.8588 37.91 51.0153 37.0843L46.4403 32.6059C48.9358 29.9379 50.6378 26.5469 51.1803 22.791H62.8402C64.033 22.791 65 21.8444 65 20.6768C65 19.5091 64.033 18.5625 62.8402 18.5625H51.2934C50.9216 14.4225 49.1482 10.6762 46.4403 7.78126L50.7023 3.60924ZM46.9517 18.5625C46.1255 11.5119 40.0081 6.0363 32.5843 6.0363C25.1604 6.0363 19.043 11.5119 18.2168 18.5625H30.3402V13.2518C30.3402 12.0841 31.3072 11.1375 32.5 11.1375C33.6928 11.1375 34.6598 12.0841 34.6598 13.2518V18.5625H46.9517ZM18.3648 22.791C19.6109 29.3693 25.5033 34.3508 32.5843 34.3508C39.6653 34.3508 45.5577 29.3693 46.8038 22.791H34.6598V28.1018C34.6598 29.2695 33.6928 30.216 32.5 30.216C31.3072 30.216 30.3402 29.2695 30.3402 28.1018V22.791H18.3648Z" fill="white"/>
</svg>
